<?xml version="1.0" encoding="UTF-8" standalone="no"?>
<svg
   xmlns:dc="http://purl.org/dc/elements/1.1/"
   xmlns:cc="http://creativecommons.org/ns#"
   xmlns:rdf="http://www.w3.org/1999/02/22-rdf-syntax-ns#"
   xmlns:svg="http://www.w3.org/2000/svg"
   xmlns="http://www.w3.org/2000/svg"
   xmlns:sodipodi="http://sodipodi.sourceforge.net/DTD/sodipodi-0.dtd"
   xmlns:inkscape="http://www.inkscape.org/namespaces/inkscape"
   version="1.1"
   id="Layer_1"
   x="0px"
   y="0px"
   width="1000px"
   height="1000px"
   viewBox="0 0 1000 1000"
   enable-background="new 0 0 1000 1000"
   xml:space="preserve"
   sodipodi:docname="Riot_Games_2019_(Favicon; Print).svg"
   inkscape:version="1.0.2 (e86c870879, 2021-01-15)"><metadata
   id="metadata15"><rdf:RDF><cc:Work
       rdf:about=""><dc:format>image/svg+xml</dc:format><dc:type
         rdf:resource="http://purl.org/dc/dcmitype/StillImage" /><dc:title></dc:title></cc:Work></rdf:RDF></metadata><defs
   id="defs13" /><sodipodi:namedview
   pagecolor="#ffffff"
   bordercolor="#666666"
   borderopacity="1"
   objecttolerance="10"
   gridtolerance="10"
   guidetolerance="10"
   inkscape:pageopacity="0"
   inkscape:pageshadow="2"
   inkscape:window-width="1366"
   inkscape:window-height="705"
   id="namedview11"
   showgrid="false"
   inkscape:zoom="0.51582437"
   inkscape:cx="455.41118"
   inkscape:cy="500"
   inkscape:window-x="-8"
   inkscape:window-y="-8"
   inkscape:window-maximized="1"
   inkscape:current-layer="Layer_1" />
<g
   id="g8">
	<path
   fill="#d13839"
   d="m 1000,500 c 0,276.145 -223.855,500 -500,500 C 223.855,1000 0,776.145 0,500 0,223.855 223.855,0 500,0 c 276.145,0 500,223.855 500,500"
   id="path2"
   style="fill:#000000" />
	<polygon
   fill="#ffffff"
   points="214.594,386.551 266.043,623.372 333.903,623.372 322.182,453.966 332.593,450.738 373.399,623.372 443.905,623.372 441.287,417.017 451.704,413.789 487.37,623.372 562.012,623.372 579.617,374.11 590.028,370.882 608.507,623.372 707.199,623.372 741.943,276.755 547.276,229.395 "
   id="polygon4" />
	<polygon
   fill="#ffffff"
   points="465.712,656.95 702.951,669.146 692.779,770.605 490.311,720.323 "
   id="polygon6" />
</g>
</svg>
